<svg width="133" height="44" viewBox="0 0 133 44" fill="none" xmlns="http://www.w3.org/2000/svg">
<path d="M0.3125 0.964844V19.1548H9.8825L23.0425 0.964844H0.3125Z" fill="white"/>
<path d="M9.7525 24.8438H0.3125V43.3538H23.3925L9.7525 24.8438Z" fill="white"/>
<path d="M29.9394 0.964844L14.8594 21.4248L30.7694 43.3548H42.3694V0.964844H29.9394Z" fill="white"/>
<path d="M62.9556 11.4631H59.4056V18.9531H57.0156V1.95312H59.4056V9.36313H62.9956L68.3156 1.97313H70.9156L64.8456 10.2131L71.2156 18.9931H68.4656L62.9556 11.4631Z" fill="white"/>
<path d="M89.5006 16.8722V18.9922H77.1406V1.99219H89.1406V4.10219H79.5606V9.33219H88.0906V11.4022H79.5606V16.8922L89.5006 16.8722Z" fill="white"/>
<path d="M108.56 3.554C109.15 4.11452 109.62 4.78921 109.941 5.53704C110.262 6.28486 110.427 7.09018 110.427 7.904C110.427 8.71783 110.262 9.52314 109.941 10.271C109.62 11.0188 109.15 11.6935 108.56 12.254C107.056 13.3929 105.192 13.9536 103.31 13.834H99.1097V18.994H96.6797V1.994H103.31C105.19 1.86866 107.053 2.4222 108.56 3.554ZM106.81 10.734C107.193 10.3688 107.498 9.92976 107.706 9.44331C107.914 8.95686 108.022 8.43318 108.022 7.904C108.022 7.37482 107.914 6.85114 107.706 6.3647C107.498 5.87825 107.193 5.43915 106.81 5.074C105.783 4.34497 104.536 3.99184 103.28 4.074H99.1497V11.714H103.31C104.554 11.795 105.788 11.4493 106.81 10.734Z" fill="white"/>
<path d="M127.456 14.7322H118.456L116.586 18.9922H114.086L121.786 1.99219H124.196L131.926 18.9922H129.316L127.456 14.7322ZM126.606 12.7922L122.936 4.46219L119.256 12.8022L126.606 12.7922Z" fill="white"/>
<path d="M70.655 29.0553H64.825V43.9653H62.435V29.0553H56.625V26.9453H70.625L70.655 29.0553Z" fill="white"/>
<path d="M88.4047 41.8448V43.9648H76.0547V26.9648H88.0547V29.0748H78.4747V34.3048H87.0147V36.3748H78.4747V41.8648L88.4047 41.8448Z" fill="white"/>
<path d="M106.496 28.5271C107.095 29.0822 107.573 29.7552 107.9 30.5037C108.227 31.2523 108.396 32.0603 108.396 32.8771C108.396 33.6939 108.227 34.502 107.9 35.2505C107.573 35.999 107.095 36.672 106.496 37.2271C105.007 38.3569 103.163 38.9173 101.296 38.8071H97.0863V43.9671H94.6562V26.9671H101.316C103.173 26.8561 105.009 27.409 106.496 28.5271ZM104.746 35.7071C105.132 35.3435 105.439 34.9049 105.649 34.4182C105.859 33.9316 105.967 33.4071 105.967 32.8771C105.967 32.3471 105.859 31.8227 105.649 31.336C105.439 30.8494 105.132 30.4108 104.746 30.0471C103.719 29.3181 102.473 28.965 101.216 29.0471H97.0863V36.6871H101.216C102.47 36.7751 103.717 36.4291 104.746 35.7071Z" fill="white"/>
<path d="M129.984 43.9648V31.5648L123.834 41.8948H122.714L116.564 31.6348V43.9648H114.234V26.9648H116.234L123.334 38.9648L130.334 26.9648H132.334V43.9648H129.984Z" fill="white"/>
</svg>
