<svg width="149" height="53" viewBox="0 0 149 53" fill="none" xmlns="http://www.w3.org/2000/svg">
<path d="M68.4238 23.6116H61.0938V27.5016L67.4738 27.4116V30.9216H61.0938L60.9938 38.4216H56.8438L56.9538 20.2016L68.5338 20.1016L68.4238 23.6116Z" fill="white"/>
<path d="M82.9833 32.4656C83.021 33.3207 82.8385 34.1712 82.4533 34.9356C82.122 35.6282 81.6907 36.2684 81.1733 36.8356C80.5806 37.3553 79.9045 37.7711 79.1733 38.0656C77.4247 38.6939 75.5119 38.6939 73.7633 38.0656C73.0077 37.7733 72.3251 37.3194 71.7633 36.7356C71.2499 36.1669 70.8857 35.4797 70.7033 34.7356C70.4825 33.9618 70.3747 33.1602 70.3833 32.3556V20.1056H74.5233V32.4656C74.5218 33.0763 74.7067 33.6728 75.0533 34.1756C75.264 34.4125 75.5281 34.5959 75.8237 34.7107C76.1193 34.8254 76.4379 34.8682 76.7533 34.8356C77.0271 34.845 77.3001 34.7994 77.556 34.7015C77.8119 34.6036 78.0456 34.4554 78.2433 34.2656C78.4573 34.0766 78.626 33.8418 78.7368 33.5787C78.8476 33.3155 78.8977 33.0308 78.8833 32.7456V20.0156H83.0233L82.9833 32.4656Z" fill="white"/>
<path d="M99.8719 33.8603V38.0403H96.1519L92.5419 32.0603L90.4219 28.1703L90.3119 28.2603V38.1303H86.1719L86.2719 19.9103H89.8819L93.0719 25.3203L95.6219 29.6903H95.7319L95.8319 19.8203H99.8719V33.8603Z" fill="white"/>
<path d="M113.153 20.3924C112.089 19.899 110.923 19.6692 109.752 19.7224L103.173 19.8224L103.062 38.0424L109.222 37.9424C109.863 37.9291 110.502 37.8656 111.132 37.7524C111.726 37.6536 112.3 37.4612 112.832 37.1824C113.331 36.9301 113.795 36.6142 114.213 36.2424C114.643 35.8065 114.983 35.2899 115.213 34.7224C115.577 33.8172 115.758 32.8482 115.743 31.8724V27.7924C115.761 26.7913 115.728 25.79 115.642 24.7924C115.618 24.0147 115.473 23.2455 115.213 22.5124C115.049 22.0278 114.779 21.5859 114.423 21.2191C114.066 20.8522 113.632 20.5698 113.153 20.3924ZM111.662 27.3124V31.6824C111.691 32.3871 111.506 33.0841 111.132 33.6824C110.865 33.9687 110.533 34.187 110.165 34.3192C109.796 34.4514 109.401 34.4936 109.013 34.4424H107.313V23.2324H109.013C109.49 23.2016 109.967 23.3019 110.392 23.5224C110.719 23.7253 110.976 24.0214 111.132 24.3724C111.352 24.7809 111.462 25.2389 111.453 25.7024C111.625 26.2206 111.696 26.7672 111.662 27.3124Z" fill="white"/>
<path d="M143.538 19.4609C142.538 20.6909 141.938 21.7309 141.308 22.4609C140.678 23.1909 140.308 23.8909 140.028 24.3609C139.748 24.8309 139.498 25.2209 139.288 25.5009C139.135 25.7701 138.958 26.0246 138.758 26.2609H138.648V19.5309H134.508V37.7509H138.648V32.9109L140.348 30.5409C140.988 31.7709 141.628 33.0109 142.258 34.1509C142.888 35.2909 143.538 36.5209 144.178 37.7509H148.848C147.848 35.9509 146.848 34.1509 145.848 32.4409C144.848 30.7309 143.928 28.8309 142.848 27.0309L148.378 19.5309L143.538 19.4609Z" fill="white"/>
<path d="M127.18 32.2509C127.184 32.5348 127.129 32.8165 127.019 33.0781C126.909 33.3398 126.746 33.5757 126.54 33.7709C126.13 34.1374 125.599 34.3402 125.05 34.3409C124.732 34.388 124.408 34.3509 124.11 34.2333C123.812 34.1157 123.55 33.9218 123.35 33.6709C123.003 33.1682 122.818 32.5716 122.82 31.9609V19.6309H118.68V31.8709C118.678 32.6718 118.785 33.4692 119 34.2409C119.22 34.9912 119.618 35.6773 120.16 36.2409C120.703 36.8436 121.392 37.2979 122.16 37.5609C123.083 37.8782 124.053 38.0404 125.03 38.0409C125.9 38.022 126.762 37.8599 127.58 37.5609C128.319 37.2827 128.998 36.8652 129.58 36.3309C130.147 35.8189 130.583 35.1774 130.85 34.4609C131.191 33.6814 131.375 32.8419 131.39 31.9909V19.4609H127.24L127.18 32.2509Z" fill="white"/>
<path d="M23.6981 14.4609C7.11806 14.4609 3.84806 21.8109 4.56806 31.4609C5.41806 42.1909 23.6981 48.5409 23.6981 48.5409C23.6981 48.5409 41.8481 42.3109 42.7081 31.4609C43.5581 21.9009 40.3781 14.4609 23.6981 14.4609Z" fill="#010101"/>
<path d="M22.421 51.6134C18.7323 50.2673 15.2041 48.5166 11.901 46.3934C9.25023 44.7202 6.85258 42.6761 4.78102 40.3234C2.70129 37.9069 1.37349 34.9349 0.961023 31.7734C0.431024 24.9434 1.81102 20.1034 5.42102 16.6834C9.25102 13.0834 15.201 11.2734 23.701 11.2734C32.201 11.2734 38.141 13.0834 41.971 16.6834C45.581 20.1034 46.971 24.9434 46.431 31.7734C46.1318 34.9658 44.7892 37.9706 42.611 40.3234C40.5663 42.7032 38.1643 44.7509 35.491 46.3934C32.1692 48.4835 28.6446 50.2323 24.971 51.6134L23.701 52.0934L22.421 51.6134Z" fill="white"/>
<path d="M25.0847 51.6134C28.7734 50.2673 32.3016 48.5166 35.6047 46.3934C38.2545 44.7229 40.6492 42.6784 42.7147 40.3234C44.797 37.9074 46.1282 34.9357 46.5447 31.7734C47.0747 24.9434 45.6947 20.1034 42.0847 16.6834C38.2547 13.0834 32.3047 11.2734 23.8047 11.2734V52.0934L25.0847 51.6134Z" fill="white"/>
<path d="M22.9534 50.3836C22.2134 50.0936 3.5134 43.5436 2.5534 31.6836C2.0234 25.2336 3.3034 20.7736 6.5534 17.6836C10.0634 14.3636 15.6934 12.6836 23.6634 12.6836C31.6334 12.6836 37.2534 14.3036 40.7634 17.6836C44.0534 20.8236 45.3334 25.2836 44.7634 31.6836C43.7634 43.4536 25.1034 50.0936 24.3634 50.3836L23.6234 50.6636L22.9534 50.3836Z" fill="#181818"/>
<path d="M23.6981 14.4609C7.11806 14.4609 3.84806 21.8109 4.56806 31.4609C5.41806 42.1909 23.6981 48.5409 23.6981 48.5409C23.6981 48.5409 41.8481 42.3109 42.7081 31.4609C43.5581 21.9009 40.3781 14.4609 23.6981 14.4609Z" fill="white"/>
<path d="M23.7042 14.4609C11.7042 14.4609 9.3542 19.9709 9.9942 27.1809C10.6342 35.1809 23.7042 39.9009 23.7042 39.9009C23.7042 39.9009 36.8542 35.1909 37.4042 27.2209C38.0442 20.0109 35.7042 14.4609 23.7042 14.4609Z" fill="white"/>
<path d="M22.1016 41.8442C29.2216 42.0342 30.2816 44.9742 24.8616 48.1942C24.9714 48.3967 25.1479 48.5551 25.3611 48.6426C25.5742 48.7301 25.8111 48.7412 26.0316 48.6742L37.0316 42.2242C37.0816 42.1242 27.3116 40.5142 22.1016 41.8442Z" fill="#181818"/>
<path d="M12.4297 17.2542C18.9588 18.521 25.6706 18.521 32.1997 17.2542C29.2402 15.4064 25.7966 14.4837 22.3097 14.6042C18.826 14.4844 15.3858 15.4072 12.4297 17.2542Z" fill="white"/>
<path d="M13.7109 15.8309C17.0009 16.1109 20.4009 16.3009 23.7109 16.3009C27.0505 16.3347 30.3893 16.1777 33.7109 15.8309C30.4596 14.9144 27.0874 14.4996 23.7109 14.6009C20.3345 14.5007 16.9625 14.9154 13.7109 15.8309Z" fill="white"/>
<path d="M44.4142 23.9941C44.4719 26.0693 44.2601 28.1433 43.7842 30.1641C42.4272 31.3768 40.6741 32.0524 38.8542 32.0641C32.7942 32.0641 27.6942 23.9941 27.3742 14.2241C27.2604 10.7993 27.8035 7.38452 28.9742 4.16406C37.4042 5.86406 44.0942 14.1241 44.4142 23.9941Z" fill="#181818"/>
<path d="M43.8509 26.46C43.5309 25.61 44.4909 24.85 44.0609 24.09C43.9609 20.67 43.4309 17.35 41.6209 14.5C39.9999 11.9869 37.7712 9.92321 35.1409 8.5L29.6509 16.3L24.0109 16.68L21.3609 17.06L5.21094 30.35L5.32094 31.02C5.3103 31.2739 5.34414 31.5277 5.42094 31.77V31.96C5.78684 33.9575 6.58506 35.8509 7.7597 37.5075C8.93433 39.1641 10.457 40.5438 12.2209 41.55C14.0573 42.6387 16.1464 43.2282 18.2809 43.26C19.3659 43.2556 20.4419 43.0627 21.4609 42.69L22.3109 42.5C25.5009 41.5 27.4109 42.78 30.0709 42.5C32.4109 42.31 33.6809 44.02 35.4909 44.02C36.9809 44.02 40.1609 40.41 40.1609 40.41H39.1009C43.7809 36.81 45.6909 31.4 43.8509 26.46Z" fill="#181818"/>
<path d="M43.9935 26.5524C41.8635 20.3924 33.9935 17.1624 26.4635 19.2524C18.9335 21.3424 14.6735 28.0724 16.7935 34.2524C17.7935 37.0124 22.2135 38.5224 24.8635 39.8524C26.0335 40.4224 35.1735 44.8524 39.7435 38.8524C43.7835 35.7624 45.5835 31.0224 43.9935 26.5524Z" fill="white"/>
<path d="M40.1597 20.6733C40.6032 22.4098 40.7819 24.2034 40.6897 25.9933C39.6881 27.2247 38.2605 28.0349 36.6897 28.2633C31.3797 29.0233 25.3197 22.9533 23.2997 14.6933C22.568 11.806 22.4589 8.796 22.9797 5.86328C30.7097 6.24328 38.1397 12.3233 40.1597 20.6733Z" fill="#181818"/>
<path d="M42.3944 23.7104C40.9144 16.4004 29.0144 14.6004 29.2244 16.7804L22.1044 17.7804L7.23438 30.0704C7.65437 34.7204 11.4844 37.9404 16.0544 39.8404C16.9276 39.39 17.8552 39.0539 18.8144 38.8404L24.7644 38.2704C24.7644 38.2704 37.7644 39.7904 40.0644 37.6004C41.3667 36.4575 42.3866 35.0285 43.0441 33.4254C43.7017 31.8223 43.979 30.0887 43.8544 28.3604C43.7566 26.7141 43.2552 25.1172 42.3944 23.7104Z" fill="white"/>
<path d="M29.1153 23.4612H28.6953C30.5375 23.3844 32.3828 23.448 34.2153 23.6512C32.5231 23.4518 30.8177 23.3882 29.1153 23.4612Z" fill="white"/>
<path d="M43.1416 25.1309C43.1255 27.0908 42.8395 29.0391 42.2916 30.9209C40.895 32.0035 39.1681 32.572 37.4016 32.5309C31.5616 32.2509 26.7816 24.5309 26.7816 15.3609C26.7643 12.1295 27.4146 8.92937 28.6916 5.96094C36.8516 7.86094 43.1416 15.8309 43.1416 25.1309Z" fill="white"/>
<path d="M16.2578 27.312C16.2578 27.312 18.2578 26.312 28.1578 30.452C30.4978 31.452 39.7378 26.552 33.0478 21.152C27.6278 21.812 25.7078 20.582 25.7078 20.582L16.2578 27.312Z" fill="white"/>
<path d="M35.3828 20.8633C35.3828 20.8633 42.7128 26.8633 35.3828 31.2133C38.7828 31.0233 42.9328 29.7833 41.4428 25.9933C39.9528 22.2033 35.3828 20.8633 35.3828 20.8633Z" fill="white"/>
<path d="M28.855 22.8509C29.0589 23.3803 29.1478 23.9469 29.1159 24.5133C29.0841 25.0796 28.9321 25.6327 28.6701 26.1358C28.4082 26.639 28.0422 27.0806 27.5965 27.4315C27.1508 27.7823 26.6356 28.0344 26.085 28.1709C24.9576 28.5895 23.7138 28.5677 22.6017 28.1099C21.4896 27.6521 20.591 26.7919 20.085 25.7009V25.6109C19.985 25.4209 19.985 25.2309 19.875 25.0409L27.955 21.4609C28.2871 21.9027 28.5878 22.3672 28.855 22.8509Z" fill="#181818"/>
<path d="M12.0081 26.7422L18.9081 36.1422L7.32812 30.1622L12.0081 26.7422Z" fill="white"/>
<path d="M24.5531 26.563C25.0226 26.563 25.4031 26.2227 25.4031 25.803C25.4031 25.3832 25.0226 25.043 24.5531 25.043C24.0837 25.043 23.7031 25.3832 23.7031 25.803C23.7031 26.2227 24.0837 26.563 24.5531 26.563Z" fill="white"/>
<path d="M31.4497 37.1823C33.6071 37.5155 35.809 37.4203 37.9297 36.9023C34.3197 39.9023 30.8097 41.4623 24.9297 39.8423C27.2082 39.2393 29.3996 38.3453 31.4497 37.1823Z" fill="white"/>
<path d="M30.5044 37.5644C32.0771 38.9331 33.9204 39.9552 35.9144 40.5644C31.0344 41.2344 24.8644 41.4244 23.4844 36.4844C25.7742 37.1171 28.1302 37.4795 30.5044 37.5644Z" fill="white"/>
<path d="M22.8497 25.51C23.0816 25.51 23.2697 25.3399 23.2697 25.13C23.2697 24.9201 23.0816 24.75 22.8497 24.75C22.6177 24.75 22.4297 24.9201 22.4297 25.13C22.4297 25.3399 22.6177 25.51 22.8497 25.51Z" fill="white"/>
<path d="M9.57438 29.2109L7.23438 30.5409L7.33438 31.4009C7.69623 33.2207 8.45581 34.9379 9.55875 36.4298C10.6617 37.9217 12.0807 39.1514 13.7144 40.0309C14.9844 40.7909 21.7144 40.4109 22.7144 39.8409C18.0644 37.9409 9.57438 29.2109 9.57438 29.2109Z" fill="white"/>
<path d="M38.853 20.5828C38.4164 18.5789 37.4403 16.7325 36.0303 15.2432C34.6203 13.7538 32.83 12.6783 30.853 12.1328C30.1233 13.8399 29.7817 15.6877 29.853 17.5428V17.9228C33.038 17.9815 36.1478 18.9007 38.853 20.5828Z" fill="#181818"/>
<path d="M9.85312 28.832L7.20312 30.072L7.30313 31.212C7.63621 32.9888 8.35042 34.6723 9.39658 36.1466C10.4427 37.6209 11.796 38.8509 13.3631 39.752C18.0331 42.402 21.7531 40.892 22.8231 39.842C18.0631 37.942 9.85312 28.832 9.85312 28.832Z" fill="white"/>
<path d="M26.1378 20.673L24.1178 20.293L16.2578 27.313L26.1378 20.673Z" fill="white"/>
<path d="M27.3122 32.912C24.0122 34.152 22.0022 35.102 18.1722 34.242C15.1722 33.582 11.6922 30.922 9.99215 28.832C9.67215 29.122 9.25215 29.402 8.93215 29.692C4.15215 35.862 18.4922 40.512 19.9822 40.602C21.1522 40.702 19.7622 38.892 22.1022 40.222C24.2322 38.892 29.5422 40.132 32.1022 38.322C35.3822 35.952 33.0522 30.832 27.3122 32.912Z" fill="white"/>
<path d="M13.1791 33.6712C13.5325 33.6712 13.8191 33.4161 13.8191 33.1012C13.8191 32.7864 13.5325 32.5312 13.1791 32.5312C12.8256 32.5312 12.5391 32.7864 12.5391 33.1012C12.5391 33.4161 12.8256 33.6712 13.1791 33.6712Z" fill="#181818"/>
<path d="M16.0541 32.1634C16.4075 32.1634 16.6941 31.9082 16.6941 31.5934C16.6941 31.2786 16.4075 31.0234 16.0541 31.0234C15.7006 31.0234 15.4141 31.2786 15.4141 31.5934C15.4141 31.9082 15.7006 32.1634 16.0541 32.1634Z" fill="#181818"/>
<path d="M13.4994 31.3041C13.8528 31.3041 14.1394 31.0489 14.1394 30.7341C14.1394 30.4193 13.8528 30.1641 13.4994 30.1641C13.1459 30.1641 12.8594 30.4193 12.8594 30.7341C12.8594 31.0489 13.1459 31.3041 13.4994 31.3041Z" fill="#181818"/>
<path d="M29.3291 16.7812C29.1091 16.7812 23.0591 18.4912 23.0591 18.4912L10.0591 28.7412L7.28906 30.0713L22.2091 17.8213L29.3291 16.7812Z" fill="white"/>
<path d="M28.8041 15.543L33.6841 15.833L29.7541 17.543L33.6841 17.253L31.0341 18.963L28.1641 18.113L28.8041 15.543Z" fill="white"/>
<path d="M7.44125 33.2023C7.622 33.4838 7.8753 33.7113 8.17448 33.8609C8.47366 34.0105 8.80764 34.0766 9.14125 34.0523L9.78125 29.4023L6.78125 30.7323L6.89125 31.4023C6.97776 32.0278 7.16342 32.6354 7.44125 33.2023Z" fill="#181818"/>
<path d="M32.0909 9.66406C30.7925 11.3274 30.0476 13.3557 29.9609 15.4641C30.3942 15.3856 30.8068 15.2191 31.1731 14.9748C31.5395 14.7306 31.8519 14.4138 32.0909 14.0441C32.0909 14.0441 31.9809 12.1341 32.0909 9.66406Z" fill="#181818"/>
<path d="M35.9128 36.3306C38.0428 35.1906 41.1228 34.6206 42.1828 34.0506C44.5228 32.9106 44.7328 32.0506 44.8428 29.0506C44.9428 24.3106 40.6928 21.8406 35.3828 20.8906C38.8928 22.5006 41.7628 23.8906 41.9728 28.5806C42.1828 32.7206 38.8528 35.0006 35.9128 36.3306Z" fill="#181818"/>
<path d="M16.2578 27.312L25.6078 20.582L27.3078 22.472L16.2578 27.312Z" fill="#181818"/>
<path d="M33.0494 21.152L25.6094 20.582L27.3094 22.472L33.0494 21.152Z" fill="#181818"/>
<path d="M35.9141 36.33L43.4641 35.38L44.4141 33.2L44.6341 29.5L41.5541 32.91L38.2541 35.29L35.9141 36.33Z" fill="#181818"/>
<path d="M22.5312 39.563C22.5312 39.563 26.5313 35.193 27.7313 34.723C28.4253 34.3934 29.2059 34.2919 29.9613 34.433C31.5613 34.813 31.7713 37.283 28.1613 37.433C26.1571 37.7445 24.2397 38.4699 22.5312 39.563Z" fill="#181818"/>
<path d="M43.4644 34.2452C43.4644 35.7652 39.5344 39.2452 36.2344 39.3752C36.5577 39.7557 36.9589 40.0624 37.4109 40.2746C37.8628 40.4868 38.3551 40.5995 38.8544 40.6052C45.2644 35.3852 43.4644 33.6752 43.4644 34.2452Z" fill="#181818"/>
<path d="M22.5312 39.5655L26.0312 36.6255C26.7812 35.9555 28.4813 35.1955 29.4313 35.6255C30.9213 36.0055 31.1313 37.5255 27.7313 37.7155C25.8809 37.9336 24.1036 38.566 22.5312 39.5655Z" fill="white"/>
<path d="M20.5078 5.67125L21.6778 1.78125V3.87125L22.5278 3.30125V4.30125V6.10125L24.6478 4.30125H25.0778V8.00125H24.0078V6.20125L21.8478 7.95125H21.4178V5.01125L20.5078 5.67125Z" fill="#181818"/>
<path d="M24.2344 7.00203L26.6744 0.832031L26.3544 4.25203L27.8544 3.46203L27.6444 5.08203L27.3244 8.02203L31.4644 4.89203C31.4644 4.89203 30.0844 8.59203 29.2344 11.152L29.5544 8.21203L25.1944 11.342L25.7244 6.02203L24.2344 7.00203Z" fill="white"/>
<path d="M22.5301 39.5647C22.2101 39.8447 22.5301 40.7947 24.4401 39.6547C25.2901 39.5647 26.1401 39.5647 26.1401 39.5647L26.4601 38.8047C26.4601 38.8047 23.1601 38.8947 22.5301 39.5647Z" fill="white"/>
<path d="M27.3124 38.8047C27.3124 38.8047 23.3824 39.8047 22.6324 39.8047C22.1024 40.6547 24.4424 41.5147 24.8624 39.8947L27.3124 38.8047Z" fill="white"/>
</svg>
