<svg width="155" height="71" viewBox="0 0 155 71" fill="none" xmlns="http://www.w3.org/2000/svg">
<path d="M154.923 69.0625V1.8625C154.923 1.1625 154.323 0.5625 153.623 0.5625H1.32344C0.623437 0.5625 0.0234375 1.1625 0.0234375 1.8625V69.0625C0.0234375 69.2625 0.023436 69.3625 0.123436 69.5625C0.223436 69.6625 0.223437 69.7625 0.323437 69.8625C0.323437 69.8625 0.323437 69.8625 0.323437 69.9625C0.523437 70.1625 0.923436 70.3625 1.22344 70.3625H153.523C153.923 70.3625 154.223 70.2625 154.423 69.9625C154.423 69.9625 154.423 69.9625 154.423 69.8625C154.523 69.7625 154.623 69.6625 154.623 69.5625C154.923 69.3625 154.923 69.2625 154.923 69.0625ZM2.62344 3.1625H152.423V67.7625H2.62344V3.1625Z" fill="white"/>
<path d="M40.4187 33.8656H17.7188V21.2656H15.7188V48.3656H17.7188V35.7656H40.4187V48.3656H42.4187V21.2656H40.4187V33.8656Z" fill="white"/>
<path d="M64.2203 20.6641C56.2203 20.6641 49.8203 24.7641 49.8203 34.7641C49.8203 44.7641 56.2203 48.8641 64.2203 48.8641C72.2203 48.8641 78.6203 44.7641 78.6203 34.7641C78.6203 24.7641 72.2203 20.6641 64.2203 20.6641ZM64.2203 46.9641C57.3203 46.9641 51.8203 43.4641 51.8203 34.7641C51.8203 26.1641 57.3203 22.5641 64.2203 22.5641C71.1203 22.5641 76.6203 26.0641 76.6203 34.7641C76.6203 43.4641 71.1203 46.9641 64.2203 46.9641Z" fill="white"/>
<path d="M88.0156 21.2656H86.0156V48.3656H109.116V46.4656H88.0156V21.2656Z" fill="white"/>
<path d="M127.517 21.2656H114.617V48.3656H127.517C135.317 48.3656 141.617 44.3656 141.617 34.7656C141.617 25.1656 135.317 21.2656 127.517 21.2656ZM127.517 46.4656H116.617V23.1656H127.517C134.217 23.1656 139.617 26.4656 139.617 34.7656C139.617 43.0656 134.217 46.4656 127.517 46.4656Z" fill="white"/>
</svg>
