<svg width="131" height="31" viewBox="0 0 131 31" fill="none" xmlns="http://www.w3.org/2000/svg">
<path d="M34.8203 29.8344V3.48438H40.8203V24.4444H53.3303V29.8344H34.8203Z" fill="white"/>
<path d="M21.0234 22.1444C21.0524 23.3515 20.7626 24.5449 20.1834 25.6044C19.6184 26.5884 18.8392 27.4326 17.9034 28.0744C16.8807 28.7664 15.7429 29.271 14.5434 29.5644C13.2098 29.9015 11.839 30.0695 10.4634 30.0644C9.52454 30.0627 8.58646 30.0093 7.65344 29.9044C5.84872 29.7187 4.10378 29.153 2.53344 28.2444C1.63823 27.7267 0.797337 27.1203 0.0234375 26.4344L3.42344 21.9644C4.44338 22.8021 5.58694 23.4768 6.81344 23.9644C7.90647 24.3777 9.06489 24.5911 10.2334 24.5944C10.9437 24.6074 11.6527 24.5301 12.3434 24.3644C12.8251 24.245 13.282 24.0419 13.6934 23.7644C13.9991 23.5707 14.2503 23.3022 14.4234 22.9844C14.5546 22.7377 14.6265 22.4638 14.6334 22.1844C14.6345 21.8302 14.5338 21.4831 14.3434 21.1844C14.0806 20.8349 13.7376 20.5537 13.3434 20.3644C12.7597 20.0594 12.1507 19.8052 11.5234 19.6044C10.7734 19.3444 9.83344 19.0644 8.71344 18.7544C7.60291 18.4652 6.51635 18.0908 5.46344 17.6344C4.58891 17.2577 3.78165 16.7409 3.07344 16.1044C2.42979 15.5137 1.92737 14.7857 1.60344 13.9744C1.24899 13.0358 1.07922 12.0375 1.10344 11.0344C1.08628 9.91724 1.32936 8.81141 1.81344 7.80442C2.28447 6.84587 2.9686 6.00781 3.81344 5.35441C4.72464 4.64635 5.7635 4.12013 6.87344 3.80442C8.1335 3.43713 9.44103 3.25852 10.7534 3.27441C12.2732 3.27344 13.7898 3.41405 15.2834 3.69442C16.9516 4.04335 18.5328 4.72344 19.9334 5.69442L17.2134 10.5944C16.1742 9.89273 15.015 9.3877 13.7934 9.10441C12.7665 8.89636 11.7212 8.79251 10.6734 8.79442C9.86276 8.76138 9.05622 8.92612 8.32344 9.27441C8.03434 9.42235 7.79499 9.65184 7.63501 9.93445C7.47504 10.2171 7.40148 10.5404 7.42344 10.8644C7.42265 11.1875 7.52417 11.5026 7.71344 11.7644C7.98738 12.0927 8.32833 12.3586 8.71344 12.5444C9.29146 12.8442 9.89357 13.0951 10.5134 13.2944C11.2534 13.5344 12.1534 13.8044 13.2334 14.1144C14.6241 14.4689 15.9671 14.9893 17.2334 15.6644C18.1278 16.1338 18.9252 16.7683 19.5834 17.5344C20.11 18.1673 20.483 18.9134 20.6734 19.7144C20.8823 20.5084 20.9998 21.3237 21.0234 22.1444Z" fill="white"/>
<path d="M30.2362 3.48438H24.1562V29.8344H30.2362V3.48438Z" fill="white"/>
<path d="M62.3831 8.95438V29.8344H56.3031V8.95438H48.4531V3.48438H70.1931V8.95438H62.3831Z" fill="white"/>
<path d="M72.5703 3.48438H93.2703V8.88438H78.6503V13.8544H90.3203V19.2444H78.6503V24.4444H93.2703V29.8344H72.5703V3.48438Z" fill="white"/>
<path d="M107.072 18.3944L95.6016 29.8344V3.48438H101.682V16.1344L114.362 3.48438H121.922L111.302 14.1944L122.472 29.8344H115.342L107.072 18.3944Z" fill="white"/>
<path d="M128.275 4.87044L127.283 2.63055H127.685L128.379 4.27395L129.072 2.63055H129.474L128.482 4.87044H128.275ZM127.21 4.87044V2.63055H127.599V4.87044H127.21ZM129.158 4.87044V2.63055H129.547V4.87044H129.158ZM125.749 4.87044V2.82533H126.139V4.87044H125.749ZM125.067 2.97141V2.63055H126.82V2.97141H125.067Z" fill="white"/>
</svg>
