<svg width="123" height="73" viewBox="0 0 123 73" fill="none" xmlns="http://www.w3.org/2000/svg">
<path d="M0.4375 29.7684V33.1584C71.6075 36.5384 122.438 3.78844 122.438 3.78844V0.398438C60.3075 36.5384 0.4375 29.7684 0.4375 29.7684Z" fill="white"/>
<path d="M17.3775 47.6369C17.3788 46.9689 17.2484 46.3073 16.9937 45.6898C16.739 45.0723 16.365 44.5111 15.8931 44.0383C15.4213 43.5655 14.8608 43.1904 14.2438 42.9345C13.6269 42.6786 12.9655 42.5469 12.2975 42.5469H0.4375V59.5469H7.2175V52.7669H8.0675L10.6075 59.4569H17.3775L13.9975 52.6769L13.8575 52.4069C14.8713 52.083 15.7572 51.4477 16.3892 50.5913C17.0211 49.735 17.367 48.7011 17.3775 47.6369ZM10.1075 49.3269H7.2175V45.9369H10.1075C10.5346 45.9697 10.9335 46.1625 11.2245 46.4768C11.5155 46.791 11.6772 47.2036 11.6772 47.6319C11.6772 48.0602 11.5155 48.4727 11.2245 48.787C10.9335 49.1012 10.5346 49.2941 10.1075 49.3269Z" fill="white"/>
<path d="M28.6778 42.0469C23.0678 42.0469 18.5078 46.0469 18.5078 51.0469C18.5078 56.0469 23.0678 60.0469 28.6778 60.0469C34.2878 60.0469 38.8478 56.0469 38.8478 51.0469C38.8478 46.0469 34.2978 42.0469 28.6778 42.0469ZM32.0678 51.5669C32.0678 52.466 31.7107 53.3282 31.0749 53.964C30.4392 54.5997 29.5769 54.9569 28.6778 54.9569C27.7787 54.9569 26.9165 54.5997 26.2807 53.964C25.645 53.3282 25.2878 52.466 25.2878 51.5669V50.5669C25.2878 49.6678 25.645 48.8055 26.2807 48.1698C26.9165 47.534 27.7787 47.1769 28.6778 47.1769C29.5769 47.1769 30.4392 47.534 31.0749 48.1698C31.7107 48.8055 32.0678 49.6678 32.0678 50.5669V51.5669Z" fill="white"/>
<path d="M62.0269 59.4609V42.4609H53.6669C53.6669 42.4609 52.5369 50.4609 51.4369 50.4609C50.3369 50.4609 49.1769 42.5509 49.1769 42.5509H40.7969V59.5509H46.4369L46.3769 49.9509L48.6369 59.5509H54.2369L56.4969 49.9509V59.4609H62.0269Z" fill="white"/>
<path d="M94.2972 42.6992L86.6172 59.4592H93.5572L94.2872 57.5492H101.737L102.437 59.4592H108.717L101.877 42.6992H94.2972ZM96.0272 52.9992L97.9572 47.8992L99.9572 52.9992H96.0272Z" fill="white"/>
<path d="M105.117 47.1419H110.217V59.5019H117.057V47.1419H122.157V42.6719H105.117V47.1419Z" fill="white"/>
<path d="M89.7591 35.5769L83.0791 30.1769C105.759 21.5369 116.789 8.29688 116.789 8.29688C61.4391 38.7969 11.7891 34.2969 11.7891 34.2969C33.0091 38.6769 50.9191 38.1269 65.6091 35.2069C65.6091 35.2069 62.4391 41.5169 68.0391 49.8269C73.6391 58.1369 62.9391 64.0669 59.8691 62.8269L71.0391 72.5269C71.0391 72.5269 91.2491 68.6669 82.5291 51.6169C74.7791 36.4569 89.7591 35.5769 89.7591 35.5769Z" fill="white"/>
</svg>
