<svg width="156" height="33" viewBox="0 0 156 33" fill="none" xmlns="http://www.w3.org/2000/svg">
<path d="M36.7094 16.3164H32.6094H30.0094V27.6164V31.8164H27.7094V27.6164V16.3164H25.4094H21.1094V15.8164H36.7094V16.3164Z" fill="white"/>
<path d="M45.7094 15.8164C47.2094 15.8164 48.4094 15.9164 49.4094 16.2164C50.3094 16.5164 51.1094 16.9164 51.7094 17.5164C52.3094 18.1164 52.6094 18.9164 52.6094 19.8164C52.6094 20.8164 52.2094 21.7164 51.4094 22.5164C50.6094 23.2164 49.5094 23.8164 48.0094 24.0164C48.6094 24.3164 49.7094 24.7164 51.2094 26.7164C51.2094 26.7164 52.4094 28.3164 53.9094 31.9164H52.0094C51.8094 31.2164 49.4094 24.3164 45.1094 24.3164H44.4094V27.7164V31.9164H42.1094V27.7164V19.9164V15.9164L45.7094 15.8164ZM46.3094 23.7164C46.9094 23.7164 47.5094 23.5164 47.9094 23.3164C48.4094 23.2164 48.8094 22.9164 49.0094 22.6164C49.3094 22.3164 49.5094 22.0164 49.7094 21.6164C49.9094 21.2164 50.0094 20.6164 50.0094 20.0164C50.0094 18.9164 49.7094 18.0164 49.2094 17.4164C48.6094 16.7164 47.4094 16.5164 45.5094 16.5164H44.5094V23.7164H46.3094Z" fill="white"/>
<path d="M67.5062 25.9164H61.6062L59.3063 31.8164H58.4062L65.1062 15.8164H65.6062L72.4062 31.8164H69.9062C69.0063 29.7164 68.7062 28.9164 68.7062 28.9164L67.5062 25.9164ZM67.3063 25.4164L64.5062 18.7164L61.8063 25.4164H67.3063Z" fill="white"/>
<path d="M89.6094 15.8164L87.5094 20.8164L82.8094 31.9164H82.1094L76.7094 19.4164L76.5094 19.1164C76.4094 18.9164 76.3094 18.6164 76.2094 18.3164C76.1094 18.0164 76.0094 17.8164 75.9094 17.6164L75.1094 15.8164H77.4094L78.8094 18.9164L83.3094 29.3164L86.9094 20.6164C87.1094 20.1164 87.3094 19.6164 87.4094 19.2164L88.8094 15.8164H89.6094Z" fill="white"/>
<path d="M94.7047 17.9187C96.3047 16.5187 97.8047 15.7188 100.205 15.7188C102.605 15.7188 104.105 16.4187 105.705 17.9187C107.305 19.3187 108.105 21.3187 108.105 23.8187C108.105 26.2187 107.305 28.2187 105.805 29.6187C104.305 31.1187 102.705 31.8187 100.205 31.8187C97.8047 31.8187 96.2047 31.1187 94.7047 29.6187C93.2047 28.1187 92.3047 26.1187 92.3047 23.7188C92.3047 21.3187 93.1047 19.4187 94.7047 17.9187ZM96.4047 29.4187C97.4047 30.7187 98.4047 31.3187 100.405 31.3187C102.205 31.3187 103.305 30.7187 104.305 29.4187C105.305 28.1187 105.605 26.3187 105.605 23.8187C105.605 21.4187 105.405 19.6187 104.405 18.3187C103.405 17.0187 102.205 16.4187 100.305 16.4187C98.5047 16.4187 97.5047 17.0187 96.5047 18.3187C95.5047 19.6187 95.0047 21.4187 95.0047 23.8187C94.9047 26.3187 95.4047 28.1187 96.4047 29.4187Z" fill="white"/>
<path d="M117.309 15.8164C119.009 15.8164 120.209 16.0164 121.109 16.2164C122.009 16.5164 122.709 17.0164 123.309 17.6164C123.909 18.3164 124.209 19.1164 124.209 20.1164C124.209 21.0164 124.009 21.7164 123.609 22.4164C123.209 23.1164 122.609 23.6164 121.909 23.9164C121.209 24.3164 119.909 24.3164 118.109 24.3164H116.409V27.9164C116.409 28.6164 116.409 28.9164 116.409 29.5164V31.9164H114.109V27.9164V20.1164V15.9164L117.309 15.8164ZM121.709 20.3164C121.709 19.0164 121.409 18.0164 120.709 17.4164C120.109 16.8164 119.009 16.5164 117.609 16.5164C117.109 16.5164 116.709 16.5164 116.409 16.5164V23.7164H117.509C118.409 23.7164 119.209 23.7164 119.709 23.5164C120.309 23.3164 120.709 23.0164 121.109 22.4164C121.509 21.9164 121.709 21.1164 121.709 20.3164Z" fill="white"/>
<path d="M142.409 15.8164L136.509 25.5164V31.9164H134.209V25.7164L128.109 15.9164H131.009L136.209 24.9164L141.409 15.9164L142.409 15.8164Z" fill="white"/>
<path d="M155.405 27.9174C155.305 29.2174 154.705 30.2174 153.705 31.0174C152.705 31.7174 151.505 32.0174 150.105 31.9174C148.705 31.8174 146.705 30.6174 145.805 29.1174L146.205 28.6174C147.405 30.3174 148.305 31.0174 149.905 31.3174C151.005 31.4174 151.805 31.2174 152.505 30.7174C153.105 30.2174 153.505 29.5174 153.605 28.7174C153.705 27.9174 153.505 27.3174 153.005 26.7174C152.505 26.2174 151.605 25.5174 150.305 24.8174C149.105 24.1174 148.305 23.6174 147.705 23.1174C147.105 22.6174 146.705 22.1174 146.405 21.4174C146.105 20.7174 146.005 20.0174 146.105 19.3174C146.205 18.2174 146.705 17.3174 147.505 16.7174C148.305 16.1174 149.305 15.8174 150.505 15.9174C151.105 16.0174 151.705 16.2174 152.305 16.4174C152.905 16.7174 153.405 17.2174 153.905 17.9174L153.405 18.3174C153.305 18.1174 153.105 17.9174 153.005 17.7174C152.405 16.9174 151.605 16.5174 150.605 16.4174C149.705 16.3174 149.005 16.5174 148.505 16.9174C148.005 17.3174 147.705 17.9174 147.705 18.4174C147.605 19.1174 147.805 19.7174 148.305 20.3174C148.805 20.8174 149.705 21.5174 151.005 22.3174C152.305 23.0174 153.205 23.6174 153.705 24.0174C154.305 24.4174 154.705 25.0174 155.005 25.6174C155.405 26.4174 155.505 27.1174 155.405 27.9174Z" fill="white"/>
<path d="M10.7078 23.2164C8.70781 22.3164 6.70781 21.6164 4.80781 20.5164C3.30781 19.6164 1.00781 18.0164 1.00781 15.3164C1.00781 12.9164 2.70781 10.5164 3.80781 9.1164C7.30781 4.7164 14.3078 0.816406 18.7078 0.816406C20.4078 0.816406 22.9078 1.2164 22.9078 4.6164C22.9078 8.7164 18.8078 13.7164 16.4078 14.7164C16.3078 14.8164 16.2078 14.8164 16.1078 14.8164C16.2078 14.5164 16.4078 14.2164 16.5078 13.9164C17.3078 12.5164 18.2078 11.1164 18.9078 9.71641C19.8078 8.21641 21.0078 6.01641 21.0078 4.21641C21.0078 2.81641 20.1078 2.6164 19.5078 2.6164C18.1078 2.6164 15.9078 3.61641 14.6078 4.21641C11.4078 5.81641 2.60781 11.8164 2.60781 15.7164C2.60781 16.9164 3.50781 17.7164 4.80781 18.5164C6.10781 19.2164 7.70781 19.8164 9.40781 20.4164C12.8078 21.7164 16.1078 23.1164 16.1078 25.9164C16.1078 26.7164 15.8078 27.2164 15.3078 27.7164C12.8078 30.0164 6.00781 32.1164 3.00781 32.1164C2.00781 32.1164 0.507812 30.7164 0.507812 29.0164C0.507812 28.1164 1.00781 27.3164 1.70781 27.3164C1.60781 27.4164 1.60781 27.5164 1.60781 27.5164C1.50781 27.6164 1.40781 27.8164 1.30781 27.9164C1.20781 28.0164 1.00781 28.2164 0.907812 28.3164C0.807812 28.4164 0.707813 28.6164 0.707813 28.8164C0.707813 29.7164 2.10781 29.9164 2.70781 29.9164C5.40781 29.9164 9.30781 28.4164 11.9078 27.2164C12.9078 26.7164 14.1078 26.0164 14.1078 25.5164C14.1078 25.3164 14.0078 25.1164 13.9078 25.1164C13.4078 24.6164 12.7078 24.3164 12.1078 24.0164C11.7078 23.7164 11.2078 23.4164 10.7078 23.2164Z" fill="white"/>
</svg>
